<svg id="Layer_1" data-name="Layer 1" xmlns="http://www.w3.org/2000/svg" viewBox="0 0 35.86 27.59"><defs><style>.cls-1{fill:#d9083c;}</style></defs><circle class="cls-1" cx="1.38" cy="1.38" r="1.38"/><circle class="cls-1" cx="9.66" cy="1.38" r="1.38"/><circle class="cls-1" cx="17.93" cy="1.38" r="1.38"/><circle class="cls-1" cx="26.21" cy="1.38" r="1.38"/><circle class="cls-1" cx="34.48" cy="1.38" r="1.38"/><circle class="cls-1" cx="1.38" cy="9.66" r="1.38"/><circle class="cls-1" cx="9.66" cy="9.66" r="1.38"/><circle class="cls-1" cx="17.93" cy="9.66" r="1.38"/><circle class="cls-1" cx="26.21" cy="9.66" r="1.38"/><circle class="cls-1" cx="34.48" cy="9.66" r="1.38"/><circle class="cls-1" cx="1.38" cy="17.93" r="1.38"/><circle class="cls-1" cx="9.66" cy="17.93" r="1.38"/><circle class="cls-1" cx="17.93" cy="17.93" r="1.38"/><circle class="cls-1" cx="26.21" cy="17.93" r="1.38"/><circle class="cls-1" cx="34.48" cy="17.93" r="1.38"/><circle class="cls-1" cx="1.38" cy="26.21" r="1.38"/><circle class="cls-1" cx="9.66" cy="26.21" r="1.38"/><circle class="cls-1" cx="17.93" cy="26.21" r="1.38"/><circle class="cls-1" cx="26.21" cy="26.21" r="1.38"/><circle class="cls-1" cx="34.48" cy="26.21" r="1.38"/></svg>