<svg id="Layer_1" data-name="Layer 1" xmlns="http://www.w3.org/2000/svg" viewBox="0 0 17.86 13.74"><defs><style>.cls-1{fill:#f9fbf2;}</style></defs><circle class="cls-1" cx="0.69" cy="0.69" r="0.69"/><circle class="cls-1" cx="4.81" cy="0.69" r="0.69"/><circle class="cls-1" cx="8.93" cy="0.69" r="0.69"/><circle class="cls-1" cx="13.05" cy="0.69" r="0.69"/><circle class="cls-1" cx="17.17" cy="0.69" r="0.69"/><circle class="cls-1" cx="0.69" cy="4.81" r="0.69"/><circle class="cls-1" cx="4.81" cy="4.81" r="0.69"/><circle class="cls-1" cx="8.93" cy="4.81" r="0.69"/><circle class="cls-1" cx="13.05" cy="4.81" r="0.69"/><circle class="cls-1" cx="17.17" cy="4.81" r="0.69"/><circle class="cls-1" cx="0.69" cy="8.93" r="0.69"/><circle class="cls-1" cx="4.81" cy="8.93" r="0.69"/><circle class="cls-1" cx="8.93" cy="8.93" r="0.69"/><circle class="cls-1" cx="13.05" cy="8.93" r="0.69"/><circle class="cls-1" cx="17.17" cy="8.93" r="0.69"/><circle class="cls-1" cx="0.69" cy="13.05" r="0.69"/><circle class="cls-1" cx="4.81" cy="13.05" r="0.69"/><circle class="cls-1" cx="8.93" cy="13.05" r="0.69"/><circle class="cls-1" cx="13.05" cy="13.05" r="0.69"/><circle class="cls-1" cx="17.17" cy="13.05" r="0.69"/></svg>