<svg xmlns="http://www.w3.org/2000/svg" viewBox="0 0 1357.76 1127.32"><defs><style>.cls-1{fill:#959791;}</style></defs><g id="Layer_2" data-name="Layer 2"><g id="Layer_1-2" data-name="Layer 1"><path class="cls-1" d="M1357.76,129.66C1357.75,58.17,1300.08,0,1229.19,0H128.57C57.67,0,0,58.17,0,129.66v868c0,71.5,57.67,129.67,128.57,129.67H1229.19c70.89,0,128.57-58.17,128.57-129.67v-868ZM128.57,64H1229.19c35.6,0,64.56,29.46,64.56,65.67V259H64V129.66C64,93.46,93,64,128.57,64Zm1100.62,999.32H128.57C93,1063.32,64,1033.86,64,997.65V323H1293.75V997.65C1293.75,1033.86,1264.79,1063.32,1229.19,1063.32Z"/><path class="cls-1" d="M902.19,217.4H1024a2.14,2.14,0,0,0,2.14-2.14V105.52a2.14,2.14,0,0,0-2.14-2.14H902.19a2.14,2.14,0,0,0-2.15,2.14V215.26A2.14,2.14,0,0,0,902.19,217.4Z"/><path class="cls-1" d="M1103,217.4h121.8a2.14,2.14,0,0,0,2.15-2.14V105.52a2.14,2.14,0,0,0-2.15-2.14H1103a2.14,2.14,0,0,0-2.15,2.14V215.26A2.14,2.14,0,0,0,1103,217.4Z"/><path class="cls-1" d="M1148.1,879.39l-38.41-96.57v0h0c-12.42-31.16-46.86-49.44-80.13-42.53l-.54.14-.53.1-70.93,17.3q-9.18-10.12-19.15-19.63l19.81-69.76c0-.2.08-.41.14-.61s.16-.52.22-.79a70.06,70.06,0,0,0-40.19-80.52l-.09,0-95.47-41.7-.09,0-.08,0a69.61,69.61,0,0,0-85.86,25.65c-.11.16-.19.33-.3.5s-.23.32-.33.49l-38.37,63.44q-13.8-.69-27.62-.37L634.77,571c-.11-.21-.25-.4-.37-.6s-.23-.43-.36-.65c-17.76-28.71-54.61-41-85.82-28.73l-.11,0-97.67,38.41-.07,0-.06,0c-31.16,12.42-49.44,46.86-42.53,80.13.05.26.14.52.2.78s.07.43.13.65l18.12,70.74q-10.05,9.12-19.49,19l-70.92-19.88c-.21-.07-.43-.1-.65-.15s-.42-.14-.65-.19A70.07,70.07,0,0,0,253.89,771s0,.09,0,.13a.54.54,0,0,1-.05.11l-40.5,96.32h0l-.1.24,0,.1c-13.05,30.81-1.81,67.83,26.25,86.24l.75.46c.14.08.26.18.4.26l62.39,37.26c-.09,4.86-.09,9.63-.08,14.32v3.79a32,32,0,0,0,64,0v-3.89c0-10,0-19.38.93-28.41,0-.26,0-.51,0-.77.05-.65.09-1.31.11-2,0-.47,0-.94,0-1.41s0-1.09-.08-1.62-.1-1.12-.17-1.67-.12-.89-.2-1.34c-.1-.6-.22-1.2-.36-1.79q-.14-.6-.3-1.2c-.16-.59-.34-1.18-.53-1.75s-.29-.82-.44-1.23-.42-1.06-.65-1.57-.41-.9-.63-1.34-.46-.89-.7-1.33-.57-1-.87-1.45-.47-.74-.72-1.1-.7-1-1.08-1.46-.52-.66-.79-1-.79-.91-1.2-1.35l-1-1c-.4-.39-.8-.76-1.22-1.13s-.84-.7-1.27-1-.73-.58-1.11-.85-1.08-.75-1.64-1.1c-.22-.13-.42-.29-.64-.42l-78-46.6a6.74,6.74,0,0,1-2.27-7.66.36.36,0,0,1,0-.11l.06-.13,40.5-96.32a6.4,6.4,0,0,1,6.95-3.47l88.88,24.93.12,0c.37.1.75.18,1.13.27s.94.22,1.41.31l1,.17c.59.09,1.18.17,1.77.23l.66.07c.87.07,1.73.11,2.58.11,1.06,0,2.12-.07,3.16-.17l.57-.07c.85-.1,1.7-.24,2.53-.4l.77-.16c.86-.2,1.7-.42,2.54-.69.17-.05.34-.09.5-.15.94-.31,1.85-.67,2.75-1.06.35-.15.69-.33,1-.49.58-.28,1.14-.57,1.7-.89.37-.2.73-.4,1.09-.62.69-.42,1.36-.87,2-1.35.21-.14.42-.28.62-.44a29.27,29.27,0,0,0,2.27-1.9l.6-.57q1-1,1.92-2l.24-.25A307.48,307.48,0,0,1,482.28,768c.21-.17.39-.36.59-.53.51-.43,1-.87,1.49-1.33s.66-.67,1-1,.75-.79,1.1-1.2.72-.87,1.06-1.31.55-.72.8-1.09.69-1,1-1.53c.22-.35.43-.7.64-1.06.3-.53.59-1.07.86-1.62.19-.39.38-.78.55-1.17s.45-1.05.65-1.57.34-.93.5-1.39.3-1,.44-1.44.28-1.08.41-1.63.18-.85.26-1.29.2-1.19.27-1.79c.06-.42.09-.83.13-1.25.05-.6.09-1.21.1-1.82,0-.45,0-.9,0-1.36s0-1.11-.07-1.67-.1-1.09-.16-1.63-.11-.93-.19-1.4c-.11-.65-.25-1.29-.39-1.94-.06-.26-.1-.52-.16-.79l-22.74-88.79c-.48-2.92,1.2-6.47,3.59-7.41l97.52-38.36.07,0,.07,0c2.49-1,6.21.32,7.81,2.69L624,682.91c.22.4.46.78.7,1.16s.39.65.6,1c.44.67.9,1.3,1.38,1.92l.54.66q.69.85,1.44,1.65l.38.4c.65.67,1.32,1.31,2,1.91l.33.26q.92.78,1.89,1.47l.52.37c.73.51,1.49,1,2.26,1.43.18.11.37.2.55.3.6.32,1.21.63,1.82.91l.94.43c.66.28,1.32.54,2,.77.39.14.79.26,1.19.38.56.18,1.13.34,1.7.48l1.08.25c.82.17,1.66.33,2.5.43.18,0,.37,0,.56.06q1.21.14,2.43.18l.59,0,.56,0c.81,0,1.61-.05,2.42-.11h.07a312.51,312.51,0,0,1,57.22.76l.22,0c1,.1,2.08.17,3.11.17h.1c.85,0,1.7,0,2.54-.12l.88-.08c.65-.07,1.3-.16,1.94-.28l1.08-.2c.62-.13,1.24-.27,1.85-.44l1-.29c.56-.17,1.11-.36,1.66-.56l.71-.26c.77-.3,1.52-.64,2.27-1l.56-.29c.66-.34,1.31-.69,2-1.08l.33-.2a31.48,31.48,0,0,0,4.35-3.24l.28-.24c.64-.59,1.27-1.2,1.87-1.84l.06-.06c.6-.64,1.16-1.31,1.71-2,.16-.2.31-.41.46-.61q.52-.71,1-1.44c.19-.29.39-.58.57-.88l.22-.33,48-79.42a5.63,5.63,0,0,1,7-1.82l95.31,41.63.08,0,.09,0a6.41,6.41,0,0,1,3.47,6.92L871.4,739.82c-.07.26-.11.51-.18.77-.16.65-.32,1.29-.44,1.94-.09.46-.16.92-.23,1.38s-.15,1.09-.2,1.63-.09,1.11-.11,1.67,0,.9,0,1.36,0,1.22,0,1.82l.09,1.24c.06.61.14,1.21.23,1.81.07.44.15.86.23,1.29s.23,1.11.37,1.65.25,1,.4,1.43.3,1,.46,1.42.39,1,.6,1.57.35.81.54,1.21.52,1.09.8,1.62c.2.37.41.74.62,1.1.31.52.62,1,.95,1.53s.53.77.8,1.14.65.88,1,1.3.72.86,1.1,1.28.6.67.92,1c.48.49,1,.95,1.49,1.41.19.16.35.35.55.51a306.93,306.93,0,0,1,39.79,40.79c.07.08.15.15.22.24.62.75,1.27,1.46,2,2.15l.63.62c.7.67,1.42,1.31,2.18,1.91l.61.47c.71.54,1.44,1,2.19,1.52l1.07.63c.59.34,1.19.66,1.8,1,.34.16.67.34,1,.49.94.43,1.88.81,2.86,1.15l.39.11c.9.3,1.81.55,2.74.77l.74.16c.87.18,1.75.32,2.64.43l.57.07a32,32,0,0,0,3.25.19c.81,0,1.62,0,2.44-.11l.62-.05c.58-.06,1.17-.13,1.75-.22l.75-.11c.69-.12,1.37-.26,2-.43l.16,0,.3-.07,88.59-21.61c2.91-.53,6.55,1.16,7.52,3.57L1088.62,903v0h0a7.27,7.27,0,0,1-2.29,8l-80.06,44.36c-.23.13-.44.29-.68.42-.58.34-1.16.69-1.71,1.07-.39.26-.76.54-1.13.81s-.89.66-1.31,1-.85.72-1.26,1.1-.67.61-1,.94-.84.87-1.24,1.32-.56.63-.83.95c-.39.47-.75,1-1.11,1.43s-.52.72-.76,1.08-.61.93-.89,1.41-.51.87-.75,1.31-.45.87-.66,1.3-.48,1-.7,1.57-.32.79-.46,1.19c-.22.58-.42,1.16-.6,1.75-.12.39-.22.78-.33,1.18-.15.59-.3,1.19-.42,1.8-.09.44-.16.88-.23,1.32s-.17,1.11-.23,1.67-.09,1.09-.12,1.64,0,.93-.06,1.41q0,1,.06,2c0,.27,0,.53,0,.8.67,8.53,1,16.49,1,24.34a32,32,0,0,0,64,0q0-4.25-.11-8.54l63.73-35.31.39-.25c.31-.18.62-.34.93-.53,28.63-17.7,40.78-54.74,28.28-86.18A.08.08,0,0,1,1148.1,879.39Z"/><path class="cls-1" d="M678.87,768.13c-133.51,0-242.13,108.63-242.13,242.14a32,32,0,0,0,64,0c0-98.22,79.91-178.13,178.13-178.13S857,912,857,1010.26a32,32,0,0,0,64,0C921,876.74,812.38,768.13,678.87,768.13Z"/></g></g></svg>