<svg xmlns="http://www.w3.org/2000/svg" viewBox="0 0 1164.86 1164.86"><defs><style>.cls-1{fill:#959791;}</style></defs><g id="Layer_2" data-name="Layer 2"><g id="Layer_1-2" data-name="Layer 1"><g id="target_targeting" data-name="target targeting"><path class="cls-1" d="M582.43,698.91a116.49,116.49,0,1,1,0-233,19.42,19.42,0,0,1,0,38.83,77.67,77.67,0,1,0,54.2,22.05c-7.69-7.49,19.42-35.3,27.08-27.83a116.48,116.48,0,0,1-81.28,199.92Z"/><path class="cls-1" d="M582.43,931.89C389.75,931.89,233,775.11,233,582.43S389.75,233,582.43,233a348.15,348.15,0,0,1,190.44,56.38,19.42,19.42,0,0,1-21.19,32.54A309.52,309.52,0,0,0,582.43,271.8c-171.28,0-310.63,139.35-310.63,310.63S411.15,893.06,582.43,893.06,893.06,753.71,893.06,582.43a308.61,308.61,0,0,0-90.87-219.55,19.41,19.41,0,1,1,27.45-27.45,347.2,347.2,0,0,1,102.25,247C931.89,775.11,775.11,931.89,582.43,931.89Z"/><path class="cls-1" d="M582.43,815.4c-128.47,0-233-104.5-233-233s104.5-233,233-233a231,231,0,0,1,98.44,21.76,19.42,19.42,0,0,1-16.42,35.19,192.46,192.46,0,0,0-82-18.12c-107,0-194.14,87.1-194.14,194.14s87.1,194.14,194.14,194.14,194.14-87.1,194.14-194.14a193.11,193.11,0,0,0-55.51-136,19.41,19.41,0,0,1,27.72-27.19A231.67,231.67,0,0,1,815.4,582.43C815.4,710.9,710.9,815.4,582.43,815.4Z"/><path class="cls-1" d="M582.43,601.86a19.42,19.42,0,0,1-13.73-33.14l446.53-446.53a19.41,19.41,0,0,1,27.45,27.46L596.15,596.17A19.31,19.31,0,0,1,582.43,601.86Z"/><path class="cls-1" d="M834.81,349.48a19.73,19.73,0,0,1-7.43-1.48,19.46,19.46,0,0,1-12-17.94V194.16a19.38,19.38,0,0,1,5.69-13.72L976.4,25.12a19.41,19.41,0,0,1,33.14,13.73v135.9a19.38,19.38,0,0,1-5.69,13.72L848.54,343.79A19.41,19.41,0,0,1,834.81,349.48ZM854.23,202.2v81L970.71,166.71v-81Z"/><path class="cls-1" d="M1056.22,244.54l-27.72,27.71A539.24,539.24,0,0,1,1126,582.43c0,299.74-243.86,543.6-543.6,543.6S38.83,882.17,38.83,582.43s243.85-543.6,543.6-543.6c87.67,0,171.35,20.23,248.73,60.14a19.41,19.41,0,0,0,17.78-34.51A583.76,583.76,0,0,0,582.43,0C261.28,0,0,261.28,0,582.43s261.28,582.43,582.43,582.43,582.43-261.28,582.43-582.43A577.5,577.5,0,0,0,1056.22,244.54Z"/><path class="cls-1" d="M926.65,330.06a423.26,423.26,0,0,1,82.89,252.37c0,235.51-191.6,427.11-427.11,427.11S155.31,817.94,155.31,582.43,346.92,155.31,582.43,155.31a424.31,424.31,0,0,1,175.26,37.43,19.41,19.41,0,1,0,15.92-35.41,463,463,0,0,0-191.18-40.84c-256.92,0-465.94,209-465.94,465.94s209,465.94,465.94,465.94,465.94-209,465.94-465.94a462.4,462.4,0,0,0-75.66-254.36l-2,2Z"/><path class="cls-1" d="M970.71,349.48H834.81a19.41,19.41,0,0,1-13.72-33.14L976.4,161a19.44,19.44,0,0,1,13.73-5.69H1126a19.41,19.41,0,0,1,13.72,33.14L984.44,343.79A19.41,19.41,0,0,1,970.71,349.48Zm-89-38.83h81l116.48-116.49h-81Z"/></g></g></g></svg>