<svg xmlns="http://www.w3.org/2000/svg" viewBox="0 0 1335.18 1107.23"><defs><style>.cls-1{fill:#959791;}</style></defs><g id="Layer_2" data-name="Layer 2"><g id="Layer_1-2" data-name="Layer 1"><path class="cls-1" d="M1335.18,126.93c0-70-57.2-126.93-127.5-126.93H126.93A127.07,127.07,0,0,0,0,126.93V979.74c0,70.3,56.94,127.49,126.93,127.49H1207.68a127.64,127.64,0,0,0,127.5-127.49V126.93ZM126.93,63.34H1207.68c35.37,0,64.15,28.53,64.16,63.59V254H63.34V126.93A63.67,63.67,0,0,1,126.93,63.34Zm1080.75,980.55H126.93c-35.06,0-63.59-28.78-63.59-64.15V317.37h1208.5V979.74A64.23,64.23,0,0,1,1207.68,1043.89Z"/><path class="cls-1" d="M886.75,213H1007a2.13,2.13,0,0,0,2.12-2.13V102.55a2.12,2.12,0,0,0-2.12-2.12H886.75a2.13,2.13,0,0,0-2.13,2.12v108.3A2.14,2.14,0,0,0,886.75,213Z"/><path class="cls-1" d="M1084.07,213h120.21a2.14,2.14,0,0,0,2.13-2.13V102.55a2.13,2.13,0,0,0-2.13-2.12H1084.07a2.12,2.12,0,0,0-2.12,2.12v108.3A2.13,2.13,0,0,0,1084.07,213Z"/><path class="cls-1" d="M496.41,511.49a31.67,31.67,0,0,0-43.89-9L223.44,653.92a31.69,31.69,0,0,0,0,52.85L452.52,858.16a31.67,31.67,0,1,0,34.92-52.84l-189.09-125,189.09-125A31.67,31.67,0,0,0,496.41,511.49Z"/><path class="cls-1" d="M771.59,501.52a31.66,31.66,0,0,0-43.26,11.6L552,818.74a31.67,31.67,0,1,0,54.87,31.66L783.2,544.78A31.67,31.67,0,0,0,771.59,501.52Z"/><path class="cls-1" d="M1116.81,653.9,887.17,502.51a31.67,31.67,0,1,0-34.87,52.88l189.54,125L852.3,805.3a31.67,31.67,0,0,0,34.87,52.88l229.64-151.39a31.68,31.68,0,0,0,0-52.89Z"/></g></g></svg>