<svg xmlns="http://www.w3.org/2000/svg" viewBox="0 0 1295.39 1130.22"><defs><style>.cls-1{fill:#959791;}</style></defs><g id="Layer_2" data-name="Layer 2"><g id="Layer_1-2" data-name="Layer 1"><path class="cls-1" d="M1295.39,127.55a127.2,127.2,0,0,0-37-90.29A125.56,125.56,0,0,0,1168.65,0H126.75A125.6,125.6,0,0,0,37,37.25a127.24,127.24,0,0,0-37,90.3V850.43a127.22,127.22,0,0,0,37,90.3A125.6,125.6,0,0,0,126.75,978H504.92v90.71H263a30.77,30.77,0,0,0,0,61.53H1033.4a30.77,30.77,0,0,0,0-61.53H790.47V978h378.18a125.6,125.6,0,0,0,89.72-37.25,127.22,127.22,0,0,0,37-90.3V127.55ZM729.33,1068.69H566.06V978H729.33Zm439.32-152.24H126.75c-36.79,0-65.61-29-65.61-66V127.55c0-37,28.82-66,65.61-66h1041.9c36.78,0,65.6,29,65.6,66V850.43C1234.25,887.45,1205.43,916.45,1168.65,916.45Z"/><path class="cls-1" d="M988.09,655.83h0l-35-60.73L980.32,579h0a14.67,14.67,0,0,0,7-13.66,13.68,13.68,0,0,0-9.06-11.61h0l-90.15-31.25h0a13.46,13.46,0,0,0-11.23,1.07,13.66,13.66,0,0,0-6.54,9.25h0l-18,94.77h0a13.73,13.73,0,0,0,5.47,13.69,14.44,14.44,0,0,0,8.37,2.87,11.9,11.9,0,0,0,6-1.63h0l26.25-16,35,61.68h0a13.61,13.61,0,0,0,11.86,6.65,13.82,13.82,0,0,0,7-1.87h0l31.05-18.14h0c6.35-3.7,8.53-12.37,4.76-18.95Z"/></g></g></svg>