<svg xmlns="http://www.w3.org/2000/svg" viewBox="0 0 1171.58 645.41"><defs><style>.cls-1{fill:#959791;}</style></defs><g id="Layer_2" data-name="Layer 2"><g id="Layer_1-2" data-name="Layer 1"><path class="cls-1" d="M1168.37,335.69c.24-.45.44-.91.66-1.37s.36-.76.52-1.15.26-.71.38-1.06c.18-.51.37-1,.52-1.52.08-.26.13-.53.2-.79.16-.6.32-1.2.44-1.81,0-.25.07-.5.11-.74.1-.62.2-1.24.26-1.87,0-.35,0-.7,0-1.05,0-.52.07-1,.07-1.55s0-1-.07-1.57c0-.34,0-.69,0-1-.06-.63-.16-1.26-.27-1.89,0-.24-.06-.48-.1-.71-.12-.62-.28-1.23-.44-1.84-.07-.25-.12-.51-.2-.76-.15-.52-.34-1-.52-1.53-.13-.35-.24-.71-.38-1.05s-.35-.78-.53-1.16-.42-.92-.65-1.37c-.16-.29-.33-.57-.5-.86-.3-.52-.61-1-.94-1.55l-.14-.22a703,703,0,0,0-1162,0,2.39,2.39,0,0,0-.13.21c-.34.51-.65,1-1,1.56-.17.28-.34.56-.5.85-.23.45-.44.92-.66,1.38S2.19,312,2,312.4s-.25.71-.38,1.06c-.18.51-.37,1-.52,1.52-.08.26-.13.52-.2.78-.16.6-.32,1.21-.43,1.82,0,.24-.07.48-.11.73-.11.62-.21,1.24-.27,1.87,0,.35,0,.7,0,1.05,0,.52-.07,1-.07,1.55s0,1,.07,1.56c0,.35,0,.7,0,1.05.06.62.16,1.24.27,1.87,0,.24.06.49.11.73.11.61.27,1.21.43,1.82.07.26.12.52.2.78.15.51.34,1,.52,1.51s.24.72.38,1.07.35.77.52,1.15.43.92.66,1.38l.5.85c.3.52.61,1.05,1,1.55a1.59,1.59,0,0,0,.13.22,702.64,702.64,0,0,0,581,307.09,702.64,702.64,0,0,0,581-307.09l.14-.22c.33-.5.64-1,.94-1.55C1168,336.27,1168.21,336,1168.37,335.69ZM585.79,590.24c-147.42,0-267.35-119.93-267.35-267.35S438.37,55.54,585.79,55.54,853.14,175.47,853.14,322.89,733.21,590.24,585.79,590.24ZM61.31,322.78a647.85,647.85,0,0,1,294-225.24,321.92,321.92,0,0,0-.5,450.19A647.47,647.47,0,0,1,61.31,322.78Zm755.47,225a321.92,321.92,0,0,0-.49-450.18,648,648,0,0,1,294,225.23A647.47,647.47,0,0,1,816.78,547.73Z"/><path class="cls-1" d="M743.38,422.41h-.24V170a20.29,20.29,0,1,0-40.57,0V422.41h-47.9V246.59a20.29,20.29,0,0,0-40.57,0V422.41H566.19v-99.2a20.29,20.29,0,0,0-40.57,0v99.2h-47.9V399.83a20.29,20.29,0,1,0-40.57,0v22.58h-4.8a20.29,20.29,0,0,0,0,40.57h311a20.29,20.29,0,0,0,0-40.57Z"/></g></g></svg>