<svg xmlns="http://www.w3.org/2000/svg" viewBox="0 0 692.51 1196.54"><defs><style>.cls-1{fill:#959791;}</style></defs><g id="Layer_2" data-name="Layer 2"><g id="Layer_1-2" data-name="Layer 1"><path class="cls-1" d="M548.8,565.73a58.61,58.61,0,0,0,57.72-48.6h0L692.08,33.19a28.27,28.27,0,0,0-55.68-9.84L550.85,507.29h0a2.07,2.07,0,0,1-2.05,1.89H151.71L236,33.2a28.27,28.27,0,1,0-55.67-9.85l-62.14,351-62-351A28.27,28.27,0,0,0,.44,33.19L86,517.11h0A58.87,58.87,0,0,0,96.45,541.7a27.62,27.62,0,0,0,3.1,3.88,58.4,58.4,0,0,0,44.17,20.15h52.13V670.79C115.73,721.21,62.36,810.42,62.36,911.88c0,157,127.7,284.66,284.67,284.66s284.66-127.7,284.66-284.66c0-102.54-54.5-192.58-136.05-242.7V565.73Zm26.36,346.15C575.16,1037.67,472.82,1140,347,1140S118.9,1037.67,118.9,911.88,221.24,683.75,347,683.75,575.16,786.09,575.16,911.88ZM439.1,642.5a284.72,284.72,0,0,0-186.72.91V565.73H439.1Z"/><polygon class="cls-1" points="251.64 773.2 265.76 828.85 323.55 797.66 323.55 1093.98 388.77 1093.98 388.77 727.86 336.35 727.86 251.64 773.2"/></g></g></svg>